<?xml version="1.0" encoding="UTF-8"?>
<svg version="1.1" xmlns="http://www.w3.org/2000/svg" width="259" height="309">
<path d="M0 0 C0.94059769 0.00007553 1.88119537 0.00015106 2.85029602 0.00022888 C4.35368782 0.00797081 4.35368782 0.00797081 5.88745117 0.01586914 C6.92359055 0.01728409 7.95972992 0.01869904 9.02726746 0.02015686 C12.32834796 0.02574297 15.62936001 0.03829297 18.93041992 0.05102539 C21.1719554 0.05604218 23.41349194 0.06060478 25.6550293 0.06469727 C31.14268276 0.07570786 36.63029645 0.09243221 42.11791992 0.11352539 C42.11791992 0.44352539 42.11791992 0.77352539 42.11791992 1.11352539 C41.43987305 1.27208008 40.76182617 1.43063477 40.06323242 1.59399414 C32.48227776 3.49448277 25.22507931 5.96445563 18.95776367 10.76977539 C17.11791992 12.11352539 17.11791992 12.11352539 15.11791992 12.11352539 C15.11791992 12.77352539 15.11791992 13.43352539 15.11791992 14.11352539 C13.97020663 15.29499495 12.81507779 16.47025409 11.62182617 17.60571289 C9.38929097 19.84404689 7.43560365 22.30087719 5.44995117 24.75805664 C5.01038086 25.20536133 4.57081055 25.65266602 4.11791992 26.11352539 C3.45791992 26.11352539 2.79791992 26.11352539 2.11791992 26.11352539 C1.7544043 27.12092773 1.7544043 27.12092773 1.38354492 28.14868164 C-0.17578156 31.80154831 -2.13402878 35.12449367 -4.13208008 38.55102539 C-13.81811156 55.52638404 -18.79540597 72.92502902 -21.88208008 92.11352539 C-22.05481445 92.98750977 -22.22754883 93.86149414 -22.40551758 94.76196289 C-23.01370211 99.03919506 -23.08240993 103.23568689 -23.12036133 107.55102539 C-23.13505211 108.91469994 -23.13505211 108.91469994 -23.15003967 110.30592346 C-23.60514484 137.47932026 -23.60514484 137.47932026 -18.88208008 164.11352539 C-18.65182129 164.94513184 -18.4215625 165.77673828 -18.18432617 166.63354492 C-16.61217611 172.19986293 -14.8340782 177.66959018 -12.88208008 183.11352539 C-12.29813477 184.75708008 -12.29813477 184.75708008 -11.70239258 186.43383789 C-8.16616505 195.57925392 -3.08302855 204.63563664 2.89135742 212.42602539 C4.11791992 214.11352539 4.11791992 214.11352539 4.11791992 216.11352539 C4.77791992 216.11352539 5.43791992 216.11352539 6.11791992 216.11352539 C7.56323242 217.65258789 7.56323242 217.65258789 9.24291992 219.73852539 C12.35864242 223.43803589 15.62338758 226.1760632 19.61401367 228.88696289 C20.11030273 229.29172852 20.6065918 229.69649414 21.11791992 230.11352539 C21.11791992 230.77352539 21.11791992 231.43352539 21.11791992 232.11352539 C21.67866211 232.23856445 22.2394043 232.36360352 22.81713867 232.49243164 C25.2941132 233.1610886 27.56320707 234.06313341 29.93041992 235.05102539 C33.95403034 236.69027408 37.91644782 238.01748919 42.11791992 239.11352539 C42.11791992 239.44352539 42.11791992 239.77352539 42.11791992 240.11352539 C35.85574844 240.16446271 29.59363091 240.19935823 23.33129883 240.22338867 C21.20334883 240.23341244 19.07541248 240.247035 16.94750977 240.2644043 C13.87927875 240.28881231 10.81123072 240.300045 7.74291992 240.30883789 C6.79989014 240.31916046 5.85686035 240.32948303 4.88525391 240.34011841 C-10.21864037 240.34265262 -21.45167876 234.06394623 -32.19067383 223.89477539 C-39.88208008 215.94661683 -39.88208008 215.94661683 -39.88208008 213.11352539 C-40.54208008 213.11352539 -41.20208008 213.11352539 -41.88208008 213.11352539 C-42.54208008 211.13352539 -43.20208008 209.15352539 -43.88208008 207.11352539 C-44.54208008 207.11352539 -45.20208008 207.11352539 -45.88208008 207.11352539 C-53.98694191 192.79630754 -59.43236809 178.84308827 -63.19458008 162.80102539 C-63.44933105 161.71587646 -63.70408203 160.63072754 -63.96655273 159.51269531 C-66.70047702 147.2994896 -67.06860299 135.38651791 -67.06738281 122.92724609 C-67.06956065 120.44814646 -67.08775437 117.96949941 -67.10668945 115.49047852 C-67.15645585 101.70570113 -66.00909989 88.30639599 -62.75708008 74.86352539 C-62.54607666 73.99074951 -62.33507324 73.11797363 -62.11767578 72.21875 C-57.47587201 54.00003834 -49.72166422 36.53295281 -37.54614258 22.10180664 C-35.7360985 20.0122493 -35.7360985 20.0122493 -33.88208008 17.11352539 C-33.22208008 17.11352539 -32.56208008 17.11352539 -31.88208008 17.11352539 C-31.88208008 16.45352539 -31.88208008 15.79352539 -31.88208008 15.11352539 C-23.32038916 6.70336883 -12.22371429 -0.03294802 0 0 Z " fill="#0EC7A6" transform="translate(79.882080078125,34.886474609375)"/>
<path d="M0 0 C0.94059769 0.00007553 1.88119537 0.00015106 2.85029602 0.00022888 C4.35368782 0.00797081 4.35368782 0.00797081 5.88745117 0.01586914 C6.92359055 0.01728409 7.95972992 0.01869904 9.02726746 0.02015686 C12.32834796 0.02574297 15.62936001 0.03829297 18.93041992 0.05102539 C21.1719554 0.05604218 23.41349194 0.06060478 25.6550293 0.06469727 C31.14268276 0.07570786 36.63029645 0.09243221 42.11791992 0.11352539 C42.11791992 0.44352539 42.11791992 0.77352539 42.11791992 1.11352539 C41.06604492 1.36875977 41.06604492 1.36875977 39.99291992 1.62915039 C35.30048138 2.82776241 30.92066554 4.04529495 26.61791992 6.30102539 C23.11791992 8.11352539 23.11791992 8.11352539 20.11791992 8.11352539 C20.11791992 8.77352539 20.11791992 9.43352539 20.11791992 10.11352539 C18.54370117 11.41040039 18.54370117 11.41040039 16.43041992 12.86352539 C13.63717103 14.87070955 11.37457597 16.78714745 9.24291992 19.48852539 C8.19104492 20.78790039 8.19104492 20.78790039 7.11791992 22.11352539 C6.45791992 22.11352539 5.79791992 22.11352539 5.11791992 22.11352539 C4.74666992 23.19633789 4.74666992 23.19633789 4.36791992 24.30102539 C2.99605747 27.38771591 1.22584719 29.48054665 -0.88208008 32.11352539 C-25.28512059 69.49809201 -28.58691209 117.83078236 -19.78051758 160.54711914 C-15.39986905 180.75480161 -7.67163553 199.36814457 5.23510742 215.62524414 C6.84144168 217.74813817 8.04052202 219.69221538 9.11791992 222.11352539 C9.77791992 222.11352539 10.43791992 222.11352539 11.11791992 222.11352539 C11.11791992 222.77352539 11.11791992 223.43352539 11.11791992 224.11352539 C12.01510742 224.54665039 12.01510742 224.54665039 12.93041992 224.98852539 C15.11791992 226.11352539 15.11791992 226.11352539 18.11791992 228.11352539 C18.11791992 228.77352539 18.11791992 229.43352539 18.11791992 230.11352539 C19.29354492 230.45383789 19.29354492 230.45383789 20.49291992 230.80102539 C23.524537 231.89867985 26.1492504 233.12586495 28.99291992 234.61352539 C33.34019776 236.84644537 37.33841925 238.1399234 42.11791992 239.11352539 C42.11791992 239.44352539 42.11791992 239.77352539 42.11791992 240.11352539 C35.94731214 240.21332993 29.77718704 240.2854315 23.60595703 240.33325195 C21.51212363 240.35321315 19.41834486 240.38039198 17.32470703 240.4152832 C2.64748928 240.65353835 -8.61665035 239.91356404 -21.88208008 233.11352539 C-21.88208008 232.45352539 -21.88208008 231.79352539 -21.88208008 231.11352539 C-22.56270508 230.92790039 -23.24333008 230.74227539 -23.94458008 230.55102539 C-28.08418186 228.52526282 -30.75590933 225.4397118 -33.88208008 222.11352539 C-34.72899414 221.32268555 -34.72899414 221.32268555 -35.59301758 220.51586914 C-36.88208008 219.11352539 -36.88208008 219.11352539 -36.88208008 217.11352539 C-37.54208008 217.11352539 -38.20208008 217.11352539 -38.88208008 217.11352539 C-42.88208008 211.70176068 -42.88208008 211.70176068 -42.88208008 209.11352539 C-43.54208008 209.11352539 -44.20208008 209.11352539 -44.88208008 209.11352539 C-69.81692703 164.43057561 -73.90146136 113.8406731 -60.25708008 64.72290039 C-56.75451295 52.66406214 -51.47437794 41.77596667 -44.88208008 31.11352539 C-44.53177734 30.54134277 -44.18147461 29.96916016 -43.82055664 29.37963867 C-42.89730632 27.92045905 -41.8954423 26.51162887 -40.88208008 25.11352539 C-40.22208008 25.11352539 -39.56208008 25.11352539 -38.88208008 25.11352539 C-38.62426758 24.54118164 -38.36645508 23.96883789 -38.10083008 23.37915039 C-36.76842066 20.90223544 -35.2315189 18.97940879 -33.38208008 16.86352539 C-32.46942383 15.80391602 -32.46942383 15.80391602 -31.53833008 14.72290039 C-29.88208008 13.11352539 -29.88208008 13.11352539 -27.88208008 13.11352539 C-27.88208008 12.45352539 -27.88208008 11.79352539 -27.88208008 11.11352539 C-19.94353511 4.54498937 -10.37971355 -0.02797766 0 0 Z " fill="#0DC7A6" transform="translate(160.882080078125,34.886474609375)"/>
<path d="M0 0 C7.48507459 5.19058444 11.43297684 11.6032344 13.08984375 20.44921875 C13.24195313 21.17882812 13.3940625 21.9084375 13.55078125 22.66015625 C14.90292198 30.98333366 13.53649596 40.23043526 9.42578125 47.6328125 C6.0563137 52.2141061 1.4079923 56.33393265 -3.91015625 58.44921875 C-11.05258677 59.38987576 -16.0496015 58.61672435 -21.91015625 54.44921875 C-21.91015625 53.78921875 -21.91015625 53.12921875 -21.91015625 52.44921875 C-22.57015625 52.44921875 -23.23015625 52.44921875 -23.91015625 52.44921875 C-30.90036293 43.35055299 -32.91536227 33.72986406 -31.91015625 22.44921875 C-30.40182749 13.9949727 -26.55123582 6.99927133 -20.41015625 1.01171875 C-13.52448793 -3.29182395 -7.11354419 -3.89128617 0 0 Z " fill="#0FC7A6" transform="translate(223.91015625,66.55078125)"/>
<path d="M0 0 C1.6640625 1.0390625 1.6640625 1.0390625 4.1015625 3.1015625 C4.1015625 3.7615625 4.1015625 4.4215625 4.1015625 5.1015625 C4.7615625 5.1015625 5.4215625 5.1015625 6.1015625 5.1015625 C13.09337107 15.7965424 14.99025036 26.09741173 12.91796875 38.6875 C11.88385831 43.01196183 10.41663327 46.32028025 8.1015625 50.1015625 C7.4415625 50.1015625 6.7815625 50.1015625 6.1015625 50.1015625 C5.8953125 50.6790625 5.6890625 51.2565625 5.4765625 51.8515625 C3.08191876 55.77007044 -0.62595072 57.67740024 -4.8984375 59.1015625 C-10.43104651 59.4704031 -15.19251819 59.36814424 -19.8984375 56.1015625 C-29.73765828 46.63870536 -29.73765828 46.63870536 -30.0234375 40.3515625 C-29.9615625 39.2378125 -29.9615625 39.2378125 -29.8984375 38.1015625 C-30.5584375 37.7715625 -31.2184375 37.4415625 -31.8984375 37.1015625 C-32.4687795 26.53439261 -31.93776944 16.16056041 -25.8984375 7.1015625 C-25.2384375 7.1015625 -24.5784375 7.1015625 -23.8984375 7.1015625 C-23.2384375 5.7815625 -22.5784375 4.4615625 -21.8984375 3.1015625 C-21.2384375 3.1015625 -20.5784375 3.1015625 -19.8984375 3.1015625 C-19.8984375 2.4415625 -19.8984375 1.7815625 -19.8984375 1.1015625 C-13.1600868 -1.71803106 -6.88958427 -3.26050284 0 0 Z " fill="#0FC7A6" transform="translate(223.8984375,185.8984375)"/>
</svg>
